<svg width="59" height="59" viewBox="0 0 59 59" fill="none" xmlns="http://www.w3.org/2000/svg">
<path d="M56.0674 5.04008C54.8339 5.04008 53.8288 4.03504 53.8288 2.80158C53.8288 1.56811 54.8339 0.563065 56.0674 0.563065C57.3008 0.563065 58.3059 1.56811 58.3059 2.80158C58.3059 4.04266 57.3008 5.04008 56.0674 5.04008ZM58.3059 16.1946C58.3059 14.9611 57.3008 13.9561 56.0674 13.9561C54.8339 13.9561 53.8288 14.9611 53.8288 16.1946C53.8288 17.428 54.8339 18.4331 56.0674 18.4331C57.3008 18.4331 58.3059 17.4356 58.3059 16.1946ZM58.3059 29.5876C58.3059 28.3541 57.3008 27.3491 56.0674 27.3491C54.8339 27.3491 53.8288 28.3541 53.8288 29.5876C53.8288 30.821 54.8339 31.8261 56.0674 31.8261C57.3008 31.8337 58.3059 30.8286 58.3059 29.5876ZM58.3059 42.9882C58.3059 41.7547 57.3008 40.7497 56.0674 40.7497C54.8339 40.7497 53.8288 41.7547 53.8288 42.9882C53.8288 44.2216 54.8339 45.2267 56.0674 45.2267C57.3008 45.2267 58.3059 44.2216 58.3059 42.9882ZM58.3059 56.3812C58.3059 55.1477 57.3008 54.1426 56.0674 54.1426C54.8339 54.1426 53.8288 55.1477 53.8288 56.3812C53.8288 57.6146 54.8339 58.6197 56.0674 58.6197C57.3008 58.6197 58.3059 57.6146 58.3059 56.3812ZM44.9129 2.80158C44.9129 1.56811 43.9078 0.563065 42.6744 0.563065C41.4409 0.563065 40.4358 1.56811 40.4358 2.80158C40.4358 4.03504 41.4409 5.04008 42.6744 5.04008C43.9078 5.04008 44.9129 4.04266 44.9129 2.80158ZM44.9129 16.1946C44.9129 14.9611 43.9078 13.9561 42.6744 13.9561C41.4409 13.9561 40.4358 14.9611 40.4358 16.1946C40.4358 17.428 41.4409 18.4331 42.6744 18.4331C43.9078 18.4331 44.9129 17.4356 44.9129 16.1946ZM44.9129 29.5876C44.9129 28.3541 43.9078 27.3491 42.6744 27.3491C41.4409 27.3491 40.4358 28.3541 40.4358 29.5876C40.4358 30.821 41.4409 31.8261 42.6744 31.8261C43.9078 31.8337 44.9129 30.8286 44.9129 29.5876ZM44.9129 42.9882C44.9129 41.7547 43.9078 40.7497 42.6744 40.7497C41.4409 40.7497 40.4358 41.7547 40.4358 42.9882C40.4358 44.2216 41.4409 45.2267 42.6744 45.2267C43.9078 45.2267 44.9129 44.2216 44.9129 42.9882ZM44.9129 56.3812C44.9129 55.1477 43.9078 54.1426 42.6744 54.1426C41.4409 54.1426 40.4358 55.1477 40.4358 56.3812C40.4358 57.6146 41.4409 58.6197 42.6744 58.6197C43.9078 58.6197 44.9129 57.6146 44.9129 56.3812ZM31.5123 2.80158C31.5123 1.56811 30.5072 0.563065 29.2738 0.563065C28.0403 0.563065 27.0352 1.56811 27.0352 2.80158C27.0352 4.03504 28.0403 5.04008 29.2738 5.04008C30.5148 5.04008 31.5123 4.04266 31.5123 2.80158ZM31.5123 16.1946C31.5123 14.9611 30.5072 13.9561 29.2738 13.9561C28.0403 13.9561 27.0352 14.9611 27.0352 16.1946C27.0352 17.428 28.0403 18.4331 29.2738 18.4331C30.5148 18.4331 31.5123 17.4356 31.5123 16.1946ZM31.5123 29.5876C31.5123 28.3541 30.5072 27.3491 29.2738 27.3491C28.0403 27.3491 27.0352 28.3541 27.0352 29.5876C27.0352 30.821 28.0403 31.8261 29.2738 31.8261C30.5148 31.8337 31.5123 30.8286 31.5123 29.5876ZM31.5123 42.9882C31.5123 41.7547 30.5072 40.7497 29.2738 40.7497C28.0403 40.7497 27.0352 41.7547 27.0352 42.9882C27.0352 44.2216 28.0403 45.2267 29.2738 45.2267C30.5148 45.2267 31.5123 44.2216 31.5123 42.9882ZM31.5123 56.3812C31.5123 55.1477 30.5072 54.1426 29.2738 54.1426C28.0403 54.1426 27.0352 55.1477 27.0352 56.3812C27.0352 57.6146 28.0403 58.6197 29.2738 58.6197C30.5148 58.6197 31.5123 57.6146 31.5123 56.3812ZM18.1193 2.80158C18.1193 1.56811 17.1142 0.563065 15.8807 0.563065C14.6473 0.563065 13.6423 1.56811 13.6423 2.80158C13.6423 4.03504 14.6473 5.04008 15.8807 5.04008C17.1218 5.04008 18.1193 4.04266 18.1193 2.80158ZM18.1193 16.1946C18.1193 14.9611 17.1142 13.9561 15.8807 13.9561C14.6473 13.9561 13.6423 14.9611 13.6423 16.1946C13.6423 17.428 14.6473 18.4331 15.8807 18.4331C17.1218 18.4331 18.1193 17.4356 18.1193 16.1946ZM18.1193 29.5876C18.1193 28.3541 17.1142 27.3491 15.8807 27.3491C14.6473 27.3491 13.6423 28.3541 13.6423 29.5876C13.6423 30.821 14.6473 31.8261 15.8807 31.8261C17.1218 31.8337 18.1193 30.8286 18.1193 29.5876ZM18.1193 42.9882C18.1193 41.7547 17.1142 40.7497 15.8807 40.7497C14.6473 40.7497 13.6423 41.7547 13.6423 42.9882C13.6423 44.2216 14.6473 45.2267 15.8807 45.2267C17.1218 45.2267 18.1193 44.2216 18.1193 42.9882ZM18.1193 56.3812C18.1193 55.1477 17.1142 54.1426 15.8807 54.1426C14.6473 54.1426 13.6423 55.1477 13.6423 56.3812C13.6423 57.6146 14.6473 58.6197 15.8807 58.6197C17.1218 58.6197 18.1193 57.6146 18.1193 56.3812ZM4.72629 2.80158C4.72629 1.56811 3.72125 0.563065 2.48778 0.563065C1.25432 0.563065 0.249268 1.56811 0.249268 2.80158C0.249268 4.03504 1.25432 5.04008 2.48778 5.04008C3.72125 5.04008 4.72629 4.04266 4.72629 2.80158ZM4.72629 16.1946C4.72629 14.9611 3.72125 13.9561 2.48778 13.9561C1.25432 13.9561 0.249268 14.9611 0.249268 16.1946C0.249268 17.428 1.25432 18.4331 2.48778 18.4331C3.72125 18.4331 4.72629 17.4356 4.72629 16.1946ZM4.72629 29.5876C4.72629 28.3541 3.72125 27.3491 2.48778 27.3491C1.25432 27.3491 0.249268 28.3541 0.249268 29.5876C0.249268 30.821 1.25432 31.8261 2.48778 31.8261C3.72125 31.8261 4.72629 30.8286 4.72629 29.5876ZM4.72629 42.9882C4.72629 41.7547 3.72125 40.7497 2.48778 40.7497C1.25432 40.7497 0.249268 41.7547 0.249268 42.9882C0.249268 44.2216 1.25432 45.2267 2.48778 45.2267C3.72125 45.2267 4.72629 44.2216 4.72629 42.9882ZM4.72629 56.3812C4.72629 55.1477 3.72125 54.1426 2.48778 54.1426C1.25432 54.1426 0.249268 55.1477 0.249268 56.3812C0.249268 57.6146 1.25432 58.6197 2.48778 58.6197C3.72125 58.6197 4.72629 57.6146 4.72629 56.3812Z" fill="#BF52A2"/>
</svg>
